<svg width="80" height="25" viewBox="0 0 80 25" fill="none" xmlns="http://www.w3.org/2000/svg">
<g clip-path="url(#clip0_849_13)">
<mask id="mask0_849_13" style="mask-type:luminance" maskUnits="userSpaceOnUse" x="0" y="0" width="80" height="25">
<path d="M80 0.50293H0V24.498H80V0.50293Z" fill="white"/>
</mask>
<g mask="url(#mask0_849_13)">
<path d="M59.4912 23.78L66.1629 16.3922L59.4912 9.00342H66.5305L69.8349 12.5924L73.0168 9.00342H79.8105L73.1705 16.3617L79.9017 23.78H72.8335L69.5591 20.1615L66.3156 23.78H59.4912Z" fill="#555555"/>
<path d="M59.4908 5.69102H51.9346V9.00337H59.4908V13.9954H51.9346V18.5774H59.4908V23.7799H46.3809V0.50293H59.4908V5.69102Z" fill="#555555"/>
<path d="M40.8508 0.50293V10.029H40.7899C39.5655 8.64207 38.0358 8.16011 36.2608 8.16011C32.625 8.16011 29.8862 10.596 28.9248 13.8165C27.8285 10.2679 25.001 8.09361 20.8083 8.09361C17.4035 8.09361 14.7148 9.59982 13.3116 12.0542V9.00371H6.27374V5.6917H13.9541V0.50293H0V23.7803H6.27374V13.9954H12.5269C12.3405 14.7142 12.241 15.4838 12.241 16.2958C12.241 21.1514 16.0048 24.5584 20.8083 24.5584C24.8476 24.5584 27.5095 22.6895 28.9175 19.2822H23.5412C22.8139 20.3058 22.2622 20.6098 20.8083 20.6098C19.1224 20.6098 17.6688 19.1602 17.6688 17.4418H28.6163C29.0911 21.2985 32.1395 24.6245 36.3228 24.6245C38.1273 24.6245 39.7795 23.7498 40.7899 22.2727H40.8508V23.7796H46.3812V0.50293H40.8508ZM17.8435 14.065C18.1923 12.5865 19.3558 11.6202 20.8083 11.6202C22.4073 11.6202 23.5116 12.5567 23.8021 14.065C23.9245 14.065 17.8435 14.065 17.8435 14.065ZM37.4946 20.2358C35.456 20.2358 34.1892 18.3639 34.1892 16.4093C34.1892 14.32 35.2911 12.3109 37.4946 12.3109C39.7795 12.3109 40.6897 14.32 40.6897 16.4093C40.6894 18.3906 39.7249 20.2358 37.4946 20.2358Z" fill="#555555"/>
</g>
</g>
<defs>
<clipPath id="clip0_849_13">
<rect width="80" height="25" fill="white"/>
</clipPath>
</defs>
</svg>
