<svg width="112" height="27" viewBox="0 0 112 27" fill="none" xmlns="http://www.w3.org/2000/svg">
<g clip-path="url(#clip0_849_37)">
<mask id="mask0_849_37" style="mask-type:luminance" maskUnits="userSpaceOnUse" x="0" y="0" width="112" height="27">
<path d="M111.8 0.50293H0.799805V26.4976H111.8V0.50293Z" fill="white"/>
</mask>
<g mask="url(#mask0_849_37)">
<path d="M40.3017 9.74875V11.222H40.3467C40.8769 10.4332 41.7571 9.50431 43.7082 9.50431C45.226 9.50431 46.3904 10.2768 46.8894 11.4436H46.9344C47.3607 10.8537 47.8493 10.4072 48.3968 10.091C49.0448 9.71616 49.7656 9.50105 50.6736 9.50105C52.7285 9.50105 54.5479 10.8374 54.5479 14.2074V20.5988H51.4152V14.654C51.4152 12.9461 50.7983 11.9586 49.5161 11.9586C48.577 11.9586 47.8943 12.5517 47.6344 13.2818C47.5443 13.5328 47.5027 13.875 47.5027 14.1618V20.6021H44.37V14.4128C44.37 12.9624 43.7775 11.9553 42.5126 11.9553C41.5007 11.9553 40.8665 12.7049 40.6066 13.347C40.4957 13.6208 40.4611 13.9369 40.4611 14.2335V20.5988H37.3249V9.74875H40.3017ZM70.7174 9.74875V11.7956H70.804C71.3792 10.2312 72.7446 9.50431 73.9436 9.50431C74.2451 9.50431 74.4115 9.52713 74.654 9.57276V12.4149C74.3664 12.3757 74.0996 12.3366 73.7253 12.3366C72.3669 12.3366 71.4208 13.0797 71.1817 14.2433C71.1297 14.4845 71.1124 14.7452 71.1124 15.0451V20.6021H67.8965V9.74875H70.7174ZM79.0204 6.15381V9.5695H81.7373V12.3334H79.0204V16.4107C79.0204 17.7307 79.3773 18.3695 80.4378 18.3695C80.9368 18.3695 81.3041 18.3108 81.6229 18.2359L81.6645 20.5271C81.2383 20.677 80.3303 20.84 79.4085 20.84C78.3239 20.84 77.4194 20.4847 76.8684 19.9339C76.2377 19.3049 75.9466 18.275 75.9466 16.8083V6.15381H79.0204ZM35.1417 20.5988H32.0229V6.15381H35.1417V20.5988ZM26.8248 16.7236C26.8248 16.9224 26.8075 17.131 26.7486 17.3102C26.506 18.0631 25.6778 18.6987 24.6451 18.6987C23.7822 18.6987 23.096 18.2391 23.096 17.2646C23.096 15.7751 24.8426 15.3612 26.8283 15.371V16.7236H26.8248ZM29.9402 14.126C29.9402 11.6652 28.8243 9.50431 25.0505 9.50431C23.1134 9.50431 21.5747 10.0161 20.7361 10.4723L21.3495 12.4474C22.1153 11.9912 23.3386 11.6163 24.4961 11.6163C26.4124 11.6131 26.7243 12.6365 26.7243 13.2916V13.448C22.5485 13.4415 19.9114 14.8006 19.9114 17.571C19.9114 19.2625 21.2525 20.8465 23.5881 20.8465C25.0263 20.8465 26.2253 20.3087 26.9461 19.445H27.0154C27.0154 19.445 27.4936 21.3191 30.1204 20.6021C29.9818 19.8198 29.9367 18.9887 29.9367 17.9882V14.126H29.9402ZM4.2444 6.15381C4.56668 7.6824 5.48154 12.1215 5.48154 12.1215C5.8662 13.9467 6.21967 15.8599 6.4865 17.3722H6.53502C6.79492 15.7654 7.20384 14.2433 7.64047 12.3594L9.18257 6.15381H12.5959L14.0375 12.5191C14.4153 14.2889 14.7167 15.6545 14.9559 17.3005H15.0009C15.2608 15.6382 15.6004 14.2172 15.9712 12.3986L17.3574 6.15381H20.6322L16.5742 20.5988C13.989 21.1301 12.9979 20.1523 12.6444 18.6009C12.291 17.0462 11.5979 14.0901 11.5979 14.0901C11.241 12.4703 10.9637 11.3295 10.7697 9.66727H10.7212C10.4439 11.3132 10.1528 12.467 9.72317 14.0868L8.02167 20.6021C5.38104 21.0975 4.46618 20.3641 3.96024 18.3727C3.5236 16.6682 0.799805 6.15707 0.799805 6.15707H4.2444V6.15381ZM62.6985 16.7236C62.6985 16.9224 62.6811 17.131 62.6222 17.3102C62.3796 18.0631 61.5514 18.6987 60.5187 18.6987C59.6558 18.6987 58.9697 18.2391 58.9697 17.2646C58.9697 15.7751 60.7163 15.3612 62.7019 15.371V16.7236H62.6985ZM65.8138 14.126C65.8138 11.6652 64.698 9.50431 60.9242 9.50431C58.987 9.50431 57.4484 10.0161 56.6098 10.4723L57.2231 12.4474C57.989 11.9912 59.2123 11.6163 60.3697 11.6163C62.2826 11.6131 62.598 12.6365 62.598 13.2916V13.448C58.4256 13.4415 55.7885 14.8006 55.7885 17.571C55.7885 19.2625 57.133 20.8465 59.4653 20.8465C60.8999 20.8465 62.1024 20.3087 62.8197 19.445H62.8925C62.8925 19.445 63.3707 21.3191 65.9975 20.6021C65.8589 19.8198 65.8138 18.9887 65.8138 17.9882V14.126Z" fill="#555555"/>
<path d="M94.3801 15.624C94.6875 16.1515 94.6668 16.7403 94.3387 17.0091L88.6668 20.9264C88.0761 21.2633 87.1918 20.8549 86.6909 20.0007C86.1866 19.143 86.2764 18.1867 86.8671 17.8498L93.1469 14.9705C93.5407 14.8208 94.0727 15.0965 94.3801 15.624ZM101.845 15.624C102.156 15.0965 102.684 14.8242 103.078 14.9671L109.361 17.8464C109.952 18.1833 110.038 19.1396 109.537 19.9973C109.033 20.8515 108.145 21.2565 107.558 20.923L101.886 17.0057C101.561 16.7403 101.537 16.1481 101.845 15.624ZM98.1107 17.7477C98.729 17.7477 99.2368 18.0608 99.3059 18.4726L99.9173 25.2724C99.9173 25.9463 99.1193 26.4976 98.1141 26.4976C97.1124 26.4976 96.311 25.9463 96.311 25.2724L96.919 18.4726C96.9881 18.0608 97.4958 17.7477 98.1107 17.7477ZM101.886 9.99484L107.558 6.0742C108.145 5.73727 109.033 6.14226 109.537 6.9999C110.038 7.85755 109.952 8.81388 109.361 9.15081L103.078 12.0335C102.684 12.1764 102.152 11.9041 101.845 11.3766C101.537 10.8491 101.561 10.2603 101.886 9.99484ZM93.1469 12.0335L86.8671 9.15081C86.2799 8.81388 86.1901 7.85755 86.6909 6.9999C87.1918 6.14226 88.0795 5.73727 88.6668 6.0742L94.3387 9.99484C94.6668 10.2569 94.6875 10.8491 94.3801 11.3766C94.0727 11.9041 93.5407 12.1764 93.1469 12.0335ZM96.919 8.528L96.311 1.72813C96.311 1.05427 97.109 0.50293 98.1141 0.50293C99.1193 0.50293 99.9173 1.05427 99.9173 1.72813L99.3059 8.528C99.2368 8.9364 98.729 9.25291 98.1107 9.25291C97.4958 9.25291 96.9881 8.9364 96.919 8.528ZM111.071 20.8992V20.729H111.226C111.278 20.729 111.313 20.763 111.313 20.8141C111.313 20.8617 111.278 20.8992 111.226 20.8992H111.071ZM110.943 21.2089C110.943 21.2259 110.957 21.2429 110.978 21.2429H111.043C111.061 21.2429 111.078 21.2259 111.078 21.2089V21.0149H111.185L111.271 21.2191C111.278 21.2327 111.289 21.2429 111.302 21.2429H111.382C111.406 21.2429 111.423 21.2191 111.413 21.1952C111.382 21.134 111.351 21.0693 111.32 21.0047C111.372 20.9876 111.451 20.9366 111.451 20.8141C111.451 20.6847 111.344 20.6099 111.237 20.6099H110.978C110.96 20.6099 110.943 20.6269 110.943 20.6439V21.2089ZM110.663 20.9264C110.663 20.6507 110.891 20.4261 111.171 20.4261C111.451 20.4261 111.679 20.6473 111.679 20.9264C111.679 21.2021 111.454 21.4267 111.171 21.4267C110.888 21.4267 110.663 21.2021 110.663 20.9264ZM110.543 20.9264C110.543 21.2667 110.822 21.5458 111.171 21.5458C111.517 21.5458 111.8 21.2667 111.8 20.9264C111.8 20.586 111.517 20.307 111.171 20.307C110.822 20.307 110.543 20.586 110.543 20.9264Z" fill="#555555"/>
</g>
</g>
<defs>
<clipPath id="clip0_849_37">
<rect width="112" height="27" fill="white"/>
</clipPath>
</defs>
</svg>
