<svg width="85" height="29" viewBox="0 0 85 29" fill="none" xmlns="http://www.w3.org/2000/svg">
<mask id="mask0_849_2" style="mask-type:luminance" maskUnits="userSpaceOnUse" x="0" y="0" width="85" height="29">
<path d="M84.3994 0.50293H0.399414V28.4972H84.3994V0.50293Z" fill="white"/>
</mask>
<g mask="url(#mask0_849_2)">
<path d="M36.1459 14.8594C36.1459 18.7451 33.0608 21.6084 29.2746 21.6084C25.4884 21.6084 22.4033 18.7451 22.4033 14.8594C22.4033 10.9463 25.4884 8.11035 29.2746 8.11035C33.0608 8.11035 36.1459 10.9463 36.1459 14.8594ZM33.138 14.8594C33.138 12.4312 31.3499 10.7698 29.2746 10.7698C27.1993 10.7698 25.4112 12.4312 25.4112 14.8594C25.4112 17.2632 27.1993 18.949 29.2746 18.949C31.3499 18.949 33.138 17.2602 33.138 14.8594Z" fill="#555555"/>
<path d="M50.9692 14.8594C50.9692 18.7451 47.8841 21.6084 44.0979 21.6084C40.3117 21.6084 37.2266 18.7451 37.2266 14.8594C37.2266 10.9493 40.3117 8.11035 44.0979 8.11035C47.8841 8.11035 50.9692 10.9463 50.9692 14.8594ZM47.9613 14.8594C47.9613 12.4312 46.1732 10.7698 44.0979 10.7698C42.0226 10.7698 40.2345 12.4312 40.2345 14.8594C40.2345 17.2632 42.0226 18.949 44.0979 18.949C46.1732 18.949 47.9613 17.2602 47.9613 14.8594Z" fill="#555555"/>
<path d="M65.1751 8.51809V20.6347C65.1751 25.6189 62.1918 27.6546 58.6651 27.6546C55.3452 27.6546 53.3471 25.4668 52.5936 23.6776L55.2124 22.6035C55.6787 23.7019 56.8214 24.9982 58.662 24.9982C60.9195 24.9982 62.3184 23.6259 62.3184 21.0425V20.0718H62.2134C61.5402 20.8903 60.2431 21.6054 58.6064 21.6054C55.1815 21.6054 52.0439 18.666 52.0439 14.8837C52.0439 11.0741 55.1815 8.11035 58.6064 8.11035C60.2401 8.11035 61.5371 8.82542 62.2134 9.61961H62.3184V8.52114H65.1751V8.51809ZM62.5315 14.8837C62.5315 12.5073 60.9226 10.7698 58.8751 10.7698C56.7998 10.7698 55.0611 12.5073 55.0611 14.8837C55.0611 17.2359 56.7998 18.949 58.8751 18.949C60.9226 18.949 62.5315 17.2359 62.5315 14.8837Z" fill="#555555"/>
<path d="M69.885 1.41602V21.1946H66.9512V1.41602H69.885Z" fill="#555555"/>
<path d="M81.3179 17.0804L83.6526 18.614C82.8991 19.7124 81.0832 21.6051 77.9456 21.6051C74.0544 21.6051 71.1484 18.6414 71.1484 14.856C71.1484 10.8425 74.0791 8.10693 77.609 8.10693C81.1635 8.10693 82.9022 10.8942 83.4704 12.4005L83.7823 13.1673L74.6257 16.9039C75.3268 18.258 76.4169 18.9487 77.9456 18.9487C79.4774 18.9487 80.5397 18.2062 81.3179 17.0804ZM74.1316 14.6522L80.2525 12.1479C79.9159 11.305 78.9029 10.7177 77.7109 10.7177C76.1822 10.7177 74.0544 12.0475 74.1316 14.6522Z" fill="#555555"/>
<path d="M11.298 13.1035V10.2401H21.0908C21.1865 10.7392 21.2359 11.3295 21.2359 11.9685C21.2359 14.1167 20.6399 16.7732 18.719 18.6658C16.8506 20.5828 14.4634 21.6052 11.3011 21.6052C5.43956 21.6052 0.510742 16.901 0.510742 11.1256C0.510742 5.35026 5.43956 0.645996 11.3011 0.645996C14.5437 0.645996 16.8537 1.89966 18.5893 3.53367L16.5387 5.55413C15.2942 4.40393 13.608 3.50933 11.298 3.50933C7.01765 3.50933 3.67 6.9082 3.67 11.1256C3.67 15.343 7.01765 18.7419 11.298 18.7419C14.0743 18.7419 15.6555 17.6434 16.6684 16.6454C17.4899 15.836 18.0303 14.6797 18.2434 13.1004L11.298 13.1035Z" fill="#555555"/>
</g>
</svg>
