<svg width="85" height="25" viewBox="0 0 85 25" fill="none" xmlns="http://www.w3.org/2000/svg">
<g clip-path="url(#clip0_849_44)">
<mask id="mask0_849_44" style="mask-type:luminance" maskUnits="userSpaceOnUse" x="0" y="0" width="85" height="25">
<path d="M84.2002 0.50293H0.200195V24.498H84.2002V0.50293Z" fill="white"/>
</mask>
<g mask="url(#mask0_849_44)">
<path d="M9.29694 4.47559V11.244H3.12866V4.47559H0.200195V20.6324H3.12866V14.0838H9.29694V20.6324H12.2254V4.47559H9.29694Z" fill="#555555"/>
<path d="M21.5978 15.409C21.5978 16.0565 21.3426 16.6775 20.8882 17.1353C20.4339 17.5932 19.8177 17.8504 19.1751 17.8504C18.5326 17.8504 17.9164 17.5932 17.462 17.1353C17.0077 16.6775 16.7524 16.0565 16.7524 15.409V8.48877H13.9746V15.409C13.9746 16.7976 14.522 18.1293 15.4963 19.1112C16.4707 20.0931 17.7922 20.6447 19.1701 20.6447C20.548 20.6447 21.8695 20.0931 22.8439 19.1112C23.8182 18.1293 24.3656 16.7976 24.3656 15.409V8.48877H21.5978V15.409Z" fill="#555555"/>
<path d="M42.1789 9.20232C42.1789 7.78386 43.1101 7.33418 44.1303 7.33418C44.9524 7.33418 46.0386 7.9646 46.7488 8.7295L48.5682 6.56929C47.66 5.33158 45.8176 4.47559 44.3097 4.47559C41.2965 4.47559 39.117 6.25408 39.117 9.20232C39.117 14.6723 45.7516 12.9372 45.7516 15.9982C45.7516 16.9424 44.842 17.7767 43.8003 17.7767C42.1574 17.7767 41.6251 16.967 40.8704 16.111L38.8516 18.2264C40.1429 19.8241 41.7356 20.6353 43.6439 20.6353C46.5064 20.6353 48.8092 18.8351 48.8092 16.0213C48.8092 9.94841 42.1746 11.8354 42.1746 9.20232" fill="#555555"/>
<path d="M83.2231 18.0506C81.5816 18.0506 81.1153 17.3349 81.1153 16.2389V11.3878H83.6664V8.92972H81.1153V5.68652L78.2988 6.96037V16.8418C78.2988 19.3693 80.0291 20.6432 82.4023 20.6432C82.7745 20.65 83.1465 20.62 83.5129 20.5535L84.2002 18.0044C83.8902 18.0261 83.5344 18.0477 83.2231 18.0477" fill="#555555"/>
<path d="M32.1713 8.57073C30.7953 8.57073 29.8354 8.9727 28.9071 9.89086V4.57275H26.125V14.4296C26.125 18.1196 28.7722 20.6471 31.7466 20.6471C35.0467 20.6471 37.9493 18.0748 37.9493 14.6104C37.9493 11.1893 35.2777 8.57218 32.1713 8.57218V8.57073ZM32.1541 17.8261C31.5298 17.8261 30.9195 17.6395 30.4004 17.29C29.8813 16.9405 29.4767 16.4436 29.2378 15.8624C28.9988 15.2811 28.9363 14.6415 29.0581 14.0245C29.1799 13.4074 29.4806 12.8406 29.922 12.3957C30.3635 11.9509 30.9259 11.6479 31.5383 11.5251C32.1506 11.4024 32.7853 11.4654 33.3621 11.7062C33.9388 11.9469 34.4318 12.3547 34.7787 12.8778C35.1255 13.4009 35.3107 14.0159 35.3107 14.6451C35.3107 15.4887 34.9781 16.2978 34.3861 16.8944C33.7942 17.4909 32.9913 17.8261 32.1541 17.8261Z" fill="#555555"/>
<path d="M62.379 14.462C62.379 10.9918 59.4821 8.42529 56.1763 8.42529C53.2019 8.42529 50.5547 10.9528 50.5547 14.6428V24.5054H53.3368V19.1801C54.2637 20.0968 55.225 20.5002 56.5996 20.5002C59.706 20.5002 62.3776 17.8845 62.3776 14.462H62.379ZM59.7447 14.4273C59.7447 15.0565 59.5596 15.6715 59.2127 16.1946C58.8659 16.7177 58.3729 17.1254 57.7961 17.3662C57.2193 17.607 56.5846 17.67 55.9723 17.5472C55.36 17.4245 54.7975 17.1215 54.3561 16.6766C53.9146 16.2318 53.614 15.665 53.4922 15.0479C53.3704 14.4308 53.4329 13.7912 53.6718 13.21C53.9107 12.6287 54.3153 12.1319 54.8344 11.7824C55.3535 11.4329 55.9638 11.2463 56.5881 11.2463C57.4253 11.2463 58.2282 11.5814 58.8202 12.178C59.4121 12.7745 59.7447 13.5837 59.7447 14.4273Z" fill="#555555"/>
<path d="M71.3668 8.28921V5.47255C71.7362 5.29863 72.0489 5.02255 72.2687 4.67646C72.4884 4.33038 72.606 3.92852 72.6079 3.51766V3.4526C72.6079 2.87737 72.3812 2.32571 71.9776 1.91896C71.5739 1.51222 71.0265 1.28371 70.4557 1.28371H70.3911C69.8203 1.28371 69.2729 1.51222 68.8693 1.91896C68.4657 2.32571 68.2389 2.87737 68.2389 3.4526V3.51766C68.2408 3.92852 68.3585 4.33038 68.5782 4.67646C68.7979 5.02255 69.1107 5.29863 69.48 5.47255V8.28921C68.4184 8.45288 67.4186 8.89632 66.5817 9.57464L58.9169 3.55815C58.9711 3.35975 59.0001 3.15519 59.003 2.94942C59.0038 2.46605 58.8624 1.9933 58.5966 1.59094C58.3308 1.18858 57.9526 0.8747 57.5097 0.688999C57.0669 0.503298 56.5794 0.454119 56.1088 0.547682C55.6382 0.641244 55.2057 0.873346 54.8661 1.21463C54.5264 1.55591 54.2948 1.99104 54.2006 2.46498C54.1063 2.93893 54.1537 3.43039 54.3367 3.8772C54.5196 4.32401 54.83 4.70611 55.2284 4.97516C55.6269 5.2442 56.0956 5.38812 56.5753 5.38869C56.9947 5.3868 57.4063 5.27413 57.769 5.06191L65.3176 10.9801C64.6393 12.0125 64.2855 13.2268 64.3021 14.4648C64.3187 15.7028 64.7051 16.9071 65.4109 17.9205L63.1152 20.234C62.9295 20.1743 62.7361 20.1426 62.5412 20.14C62.1475 20.1403 61.7626 20.2582 61.4354 20.4789C61.1081 20.6995 60.853 21.0129 60.7025 21.3796C60.5519 21.7463 60.5126 22.1497 60.5895 22.5389C60.6664 22.928 60.856 23.2855 61.1345 23.5661C61.4129 23.8467 61.7676 24.0378 62.1538 24.1153C62.54 24.1928 62.9403 24.1531 63.3041 24.0014C63.668 23.8497 63.979 23.5927 64.198 23.2629C64.4169 22.933 64.5339 22.5452 64.5342 22.1484C64.5317 21.952 64.5003 21.7571 64.4409 21.57L66.7123 19.2811C67.4529 19.8555 68.3141 20.2514 69.23 20.4385C70.1459 20.6257 71.0922 20.5991 71.9963 20.3608C72.9004 20.1226 73.7384 19.6789 74.4462 19.0639C75.1539 18.4488 75.7125 17.6787 76.0793 16.8125C76.4461 15.9463 76.6113 15.007 76.5623 14.0666C76.5132 13.1261 76.2513 12.2094 75.7964 11.3867C75.3415 10.564 74.7059 9.85716 73.9381 9.32026C73.1703 8.78337 72.2907 8.43068 71.3668 8.28921ZM70.4256 17.5518C69.8043 17.5512 69.1971 17.3651 68.6808 17.0169C68.1644 16.6686 67.7621 16.174 67.5247 15.5954C67.2873 15.0168 67.2254 14.3803 67.3468 13.7662C67.4683 13.1522 67.7676 12.5883 68.207 12.1456C68.6465 11.703 69.2062 11.4016 69.8156 11.2795C70.425 11.1574 71.0566 11.22 71.6306 11.4596C72.2046 11.6991 72.6953 12.1048 73.0406 12.6252C73.3859 13.1457 73.5704 13.7577 73.5707 14.3838C73.5707 15.2236 73.2396 16.0291 72.6503 16.6229C72.0611 17.2168 71.2618 17.5504 70.4284 17.5504" fill="#555555"/>
</g>
</g>
<defs>
<clipPath id="clip0_849_44">
<rect width="85" height="25" fill="white"/>
</clipPath>
</defs>
</svg>
