<svg width="123" height="27" viewBox="0 0 123 27" fill="none" xmlns="http://www.w3.org/2000/svg">
<g clip-path="url(#clip0_849_27)">
<mask id="mask0_849_27" style="mask-type:luminance" maskUnits="userSpaceOnUse" x="0" y="0" width="123" height="27">
<path d="M122.6 0.50293H0.599609V26.4976H122.6V0.50293Z" fill="white"/>
</mask>
<g mask="url(#mask0_849_27)">
<path d="M43.6627 15.476L42.9356 17.5314H42.875C42.7538 17.0679 42.5316 16.3626 42.168 15.5163L38.2697 5.7431H34.4521V21.3198H36.977V11.7078C36.977 11.1033 36.977 10.4181 36.9568 9.57178C36.9366 9.14861 36.8962 8.8262 36.876 8.58438H36.9366C37.0577 9.18891 37.1991 9.63223 37.3001 9.91435L41.9862 21.2795H43.7637L48.4094 9.81359C48.5104 9.55163 48.6114 9.0277 48.7124 8.58438H48.773C48.7124 9.73299 48.672 10.7607 48.6518 11.3854V21.2593H51.3382V5.7028H47.6621L43.6627 15.476ZM53.8832 10.0957H56.5091V21.2593H53.8832V10.0957ZM55.2164 5.38039C54.772 5.38039 54.4084 5.54159 54.1054 5.82371C53.8024 6.10582 53.6409 6.46854 53.6409 6.91186C53.6409 7.33503 53.8024 7.69774 54.1054 7.97986C54.4084 8.26197 54.772 8.40303 55.2164 8.40303C55.6607 8.40303 56.0445 8.24182 56.3273 7.97986C56.6303 7.69774 56.7919 7.33503 56.7919 6.91186C56.7919 6.48869 56.6303 6.12597 56.3273 5.82371C56.0647 5.54159 55.6809 5.38039 55.2164 5.38039ZM65.8208 9.99495C65.336 9.89419 64.8309 9.83374 64.3462 9.83374C63.1544 9.83374 62.0637 10.0957 61.1548 10.6196C60.2458 11.1436 59.5187 11.869 59.0541 12.7758C58.5693 13.7027 58.3269 14.7707 58.3269 15.9999C58.3269 17.0679 58.5693 18.015 59.0339 18.8815C59.4985 19.7278 60.1448 20.413 61.0134 20.8765C61.8415 21.3399 62.8111 21.5817 63.9018 21.5817C65.1541 21.5817 66.2246 21.3198 67.073 20.8361L67.0933 20.816V18.3979L66.9922 18.4785C66.6084 18.7606 66.164 19.0024 65.7197 19.1435C65.2551 19.3047 64.8309 19.3853 64.4674 19.3853C63.417 19.3853 62.5889 19.083 62.0031 18.418C61.3971 17.7732 61.0942 16.8866 61.0942 15.7783C61.0942 14.6297 61.3972 13.7229 62.0233 13.0579C62.6495 12.3929 63.4776 12.0503 64.4875 12.0503C65.3359 12.0503 66.2044 12.3325 66.9922 12.8967L67.0933 12.9773V10.4181L67.073 10.398C66.7296 10.2569 66.3459 10.0957 65.8208 9.99495ZM74.486 9.91435C73.8396 9.91435 73.2336 10.1159 72.7084 10.539C72.264 10.9017 71.9612 11.4257 71.6986 12.0503H71.6783V10.0957H69.0524V21.2593H71.6783V15.5566C71.6783 14.5894 71.8803 13.7833 72.3246 13.1989C72.769 12.5944 73.3347 12.2922 74.0214 12.2922C74.2638 12.2922 74.5061 12.3526 74.8091 12.3929C75.0918 12.4735 75.2938 12.5541 75.4352 12.6549L75.5363 12.7355V10.1159L75.4757 10.0957C75.2939 9.9748 74.9304 9.91435 74.486 9.91435ZM81.6362 9.85389C79.7981 9.85389 78.3236 10.398 77.2935 11.466C76.2432 12.534 75.7382 14.005 75.7382 15.8589C75.7382 17.5918 76.2634 19.0024 77.2733 20.0301C78.2832 21.0377 79.6567 21.5616 81.3736 21.5616C83.1713 21.5616 84.6054 21.0175 85.6356 19.9294C86.6859 18.8412 87.1909 17.3903 87.1909 15.5969C87.1909 13.8236 86.7062 12.4131 85.7164 11.3854C84.7671 10.3577 83.3733 9.85389 81.6362 9.85389ZM83.7369 18.4382C83.2521 19.0629 82.4846 19.3651 81.5352 19.3651C80.5859 19.3651 79.8183 19.0629 79.273 18.3979C78.7276 17.7732 78.465 16.8664 78.465 15.7178C78.465 14.5289 78.7478 13.6221 79.273 12.9773C79.8183 12.3325 80.5657 12.01 81.515 12.01C82.4442 12.01 83.1713 12.3123 83.6965 12.937C84.2216 13.5617 84.5044 14.4685 84.5044 15.6574C84.464 16.8664 84.2418 17.8135 83.7369 18.4382ZM93.0485 14.7304C92.2203 14.3879 91.6952 14.1259 91.4528 13.9042C91.2508 13.7027 91.1498 13.4206 91.1498 13.0579C91.1498 12.7556 91.271 12.4534 91.574 12.2519C91.8769 12.0503 92.2203 11.9496 92.7253 11.9496C93.1697 11.9496 93.6342 12.0302 94.0786 12.1511C94.523 12.272 94.9269 12.4534 95.2501 12.6952L95.3511 12.7758V10.3174L95.2905 10.2972C94.9875 10.1763 94.5837 10.0554 94.0989 9.95465C93.6141 9.87404 93.1697 9.83374 92.8061 9.83374C91.5538 9.83374 90.5236 10.136 89.7157 10.801C88.9077 11.4257 88.524 12.272 88.524 13.2594C88.524 13.7833 88.6048 14.2468 88.7866 14.6297C88.9683 15.0125 89.2309 15.3752 89.5945 15.6775C89.9581 15.9596 90.4832 16.282 91.2104 16.5843C91.8164 16.8463 92.2809 17.0478 92.5637 17.209C92.8465 17.3702 93.0284 17.5515 93.1698 17.6926C93.2708 17.8538 93.3313 18.0553 93.3313 18.3173C93.3313 19.0629 92.7657 19.4256 91.6144 19.4256C91.17 19.4256 90.7054 19.345 90.1601 19.1636C89.6147 18.9823 89.1097 18.7203 88.6856 18.418L88.5846 18.3374V20.8966L88.6452 20.9168C89.0289 21.0981 89.4935 21.219 90.0591 21.3601C90.6246 21.4608 91.1296 21.5414 91.574 21.5414C92.9273 21.5414 94.0382 21.2392 94.826 20.5742C95.6339 19.9294 96.0581 19.1032 96.0581 18.0352C96.0581 17.2896 95.8561 16.6246 95.4117 16.1208C94.826 15.6372 94.0988 15.1334 93.0485 14.7304ZM102.986 9.85389C101.148 9.85389 99.6737 10.398 98.6436 11.466C97.6135 12.534 97.0882 14.005 97.0882 15.8589C97.0882 17.5918 97.6135 19.0024 98.6234 20.0301C99.6333 21.0377 101.006 21.5616 102.723 21.5616C104.521 21.5616 105.955 21.0175 106.985 19.9294C108.036 18.8412 108.541 17.3903 108.541 15.5969C108.541 13.8236 108.056 12.4131 107.066 11.3854C106.117 10.3577 104.723 9.85389 102.986 9.85389ZM105.066 18.4382C104.582 19.0629 103.814 19.3651 102.865 19.3651C101.895 19.3651 101.148 19.0629 100.602 18.3979C100.057 17.7732 99.7948 16.8664 99.7948 15.7178C99.7948 14.5289 100.077 13.6221 100.602 12.9773C101.148 12.3325 101.895 12.01 102.845 12.01C103.753 12.01 104.501 12.3123 105.026 12.937C105.551 13.5617 105.834 14.4685 105.834 15.6574C105.834 16.8664 105.571 17.8135 105.066 18.4382ZM122.579 12.2519V10.0957H119.933V6.79095L119.852 6.8111L117.347 7.55669L117.287 7.57684V10.0957H113.328V8.68514C113.328 8.04031 113.489 7.53654 113.772 7.21412C114.055 6.89171 114.479 6.7305 115.004 6.7305C115.368 6.7305 115.751 6.8111 116.176 6.99246L116.277 7.05291V4.77586L116.216 4.75571C115.852 4.6348 115.368 4.5542 114.742 4.5542C113.954 4.5542 113.267 4.73556 112.641 5.03782C112.015 5.38039 111.55 5.84386 111.207 6.46854C110.863 7.07307 110.682 7.7582 110.682 8.54408V10.0957H108.844V12.2317H110.682V21.2593H113.328V12.2519H117.287V17.9949C117.287 20.3525 118.398 21.5414 120.619 21.5414C120.983 21.5414 121.367 21.481 121.73 21.4205C122.114 21.3399 122.397 21.2392 122.558 21.1586L122.579 21.1384V18.9823L122.478 19.0629C122.316 19.1636 122.175 19.2442 121.932 19.3047C121.73 19.3651 121.548 19.3853 121.407 19.3853C120.882 19.3853 120.518 19.2644 120.256 18.9621C120.013 18.68 119.892 18.2165 119.892 17.5314V12.2519H122.579Z" fill="#555555"/>
<path d="M0.599609 0.50293H12.9814V12.8555H0.599609V0.50293Z" fill="#555555"/>
<path d="M14.2744 0.50293H26.6562V12.8555H14.2744V0.50293Z" fill="#555555"/>
<path d="M0.599609 14.145H12.9814V26.4975H0.599609V14.145Z" fill="#555555"/>
<path d="M14.2744 14.145H26.6562V26.4975H14.2744V14.145Z" fill="#555555"/>
</g>
</g>
<defs>
<clipPath id="clip0_849_27">
<rect width="123" height="27" fill="white"/>
</clipPath>
</defs>
</svg>
