<?xml version="1.0" encoding="utf-8"?><svg viewBox="0 0 40 40" xmlns="http://www.w3.org/2000/svg" xmlns:xlink="http://www.w3.org/1999/xlink"><style>:root>svg{display:none}:root>svg:target{display:block}</style><svg fill="none" viewBox="0 0 40 40" id="arrow-icon" xmlns="http://www.w3.org/2000/svg"><path d="M14.167 8.333L25.833 20 14.167 31.667" stroke="#222" stroke-width="2" stroke-linecap="round" stroke-linejoin="round"/></svg><svg fill="none" viewBox="0 0 24 24" id="basket-icon" xmlns="http://www.w3.org/2000/svg"><path clip-rule="evenodd" d="M7.422 19.82a.766.766 0 010 1.53.764.764 0 110-1.53zM18.675 19.82a.766.766 0 11-.002 1.532.766.766 0 01.002-1.532z" stroke="#222" stroke-width="1.5" stroke-linecap="round" stroke-linejoin="round"/><path d="M2.75 3.25l2.08.36.963 11.473a1.802 1.802 0 001.797 1.653h10.912c.896 0 1.656-.658 1.785-1.546l.949-6.558a1.34 1.34 0 00-1.327-1.533H5.164M14.125 10.795h2.773" stroke="#222" stroke-width="1.5" stroke-linecap="round" stroke-linejoin="round"/></svg><svg fill="none" viewBox="0 0 24 24" id="big-arrow-icon" xmlns="http://www.w3.org/2000/svg"><g clip-path="url(#cclip0_34_504)"><path d="M16.172 11l-5.364-5.364 1.414-1.414L20 12l-7.778 7.778-1.414-1.414L16.172 13H4v-2h12.172z" fill="#000"/></g><defs><clipPath id="cclip0_34_504"><path fill="#fff" d="M0 0h24v24H0z"/></clipPath></defs></svg><svg fill="none" viewBox="0 0 13 13" id="facebook-icon" xmlns="http://www.w3.org/2000/svg"><g clip-path="url(#dclip0_34_560)"><path d="M7.22 4.413V2.808c0-.443.36-.802.803-.802h.803V0H7.22a2.407 2.407 0 00-2.407 2.407v2.006H3.209v2.006h1.605v6.418H7.22V6.42h1.605l.802-2.006H7.22z" fill="#402F2C"/></g><defs><clipPath id="dclip0_34_560"><path fill="#fff" d="M0 0h12.837v12.837H0z"/></clipPath></defs></svg><svg fill="none" viewBox="0 0 13 13" id="instagram-icon" xmlns="http://www.w3.org/2000/svg"><g clip-path="url(#eclip0_34_568)" fill="#402F2C"><path d="M12.988 3.774c-.03-.682-.14-1.15-.299-1.557a3.133 3.133 0 00-.742-1.139 3.16 3.16 0 00-1.136-.74C10.402.182 9.936.07 9.254.04 8.567.008 8.348 0 6.606 0 4.863 0 4.645.008 3.96.038c-.682.03-1.151.14-1.557.298a3.132 3.132 0 00-1.139.742 3.16 3.16 0 00-.74 1.136c-.158.41-.268.876-.298 1.558-.033.687-.04.905-.04 2.648s.007 1.96.037 2.646c.03.682.14 1.15.299 1.557.163.431.416.817.742 1.138.321.326.71.58 1.136.74.409.158.875.269 1.557.299.685.03.903.037 2.646.037 1.743 0 1.961-.007 2.646-.037.682-.03 1.15-.14 1.557-.299a3.283 3.283 0 001.878-1.878c.158-.409.269-.875.299-1.557.03-.685.037-.903.037-2.646 0-1.743-.002-1.961-.032-2.646zm-1.156 5.241c-.028.627-.133.966-.22 1.192a2.13 2.13 0 01-1.22 1.218c-.225.088-.566.193-1.19.221-.678.03-.881.038-2.594.038-1.713 0-1.918-.008-2.593-.038-.627-.028-.965-.133-1.191-.22a1.976 1.976 0 01-.737-.48 1.995 1.995 0 01-.48-.737c-.087-.226-.192-.567-.22-1.191-.03-.677-.038-.88-.038-2.593s.008-1.919.038-2.593c.028-.627.133-.966.22-1.191.103-.279.266-.532.482-.738.208-.213.459-.376.737-.479.226-.087.567-.193 1.192-.22.677-.03.88-.038 2.593-.038 1.715 0 1.918.008 2.593.038.627.027.965.133 1.19.22.28.103.532.266.738.48.213.208.376.458.48.737.087.225.192.566.22 1.19.03.678.037.881.037 2.594 0 1.713-.007 1.913-.037 2.59z"/><path d="M6.605 3.122a3.299 3.299 0 10.002 6.597 3.299 3.299 0 00-.002-6.597zm0 5.437a2.14 2.14 0 110-4.28 2.14 2.14 0 010 4.28zM10.803 2.992a.77.77 0 11-1.54 0 .77.77 0 011.54 0z"/></g><defs><clipPath id="eclip0_34_568"><path fill="#fff" transform="translate(.163)" d="M0 0h12.837v12.837H0z"/></clipPath></defs></svg><svg fill="none" viewBox="0 0 24 24" id="menu-icon" xmlns="http://www.w3.org/2000/svg"><g clip-path="url(#fclip0_34_456)"><path d="M16 18v2H5v-2h11zm5-7v2H3v-2h18zm-2-7v2H8V4h11z" fill="#222"/></g><defs><clipPath id="fclip0_34_456"><path fill="#fff" d="M0 0h24v24H0z"/></clipPath></defs></svg><svg fill="none" viewBox="0 0 17 15" id="quote-icon" xmlns="http://www.w3.org/2000/svg"><path d="M9.185 9.404c0-1.964.611-3.768 1.833-5.411 1.236-1.658 2.807-2.99 4.713-3.993L16.8 1.353a15.642 15.642 0 00-2.575 2.618c-.727.96-1.09 1.92-1.09 2.88 0 .538.101.902.305 1.09.218.19.495.379.83.568.406.247.792.604 1.155 1.07.364.45.546 1.04.546 1.766 0 .859-.284 1.586-.851 2.182-.567.582-1.302.873-2.204.873-.989 0-1.861-.415-2.618-1.244-.742-.829-1.113-2.08-1.113-3.752zM0 9.404C0 7.44.61 5.636 1.833 3.993 3.069 2.335 4.64 1.003 6.545 0l1.07 1.353A15.641 15.641 0 005.04 3.97c-.727.96-1.09 1.92-1.09 2.88 0 .538.1.902.305 1.09.218.19.494.379.829.568.407.247.792.604 1.156 1.07.364.45.545 1.04.545 1.766 0 .859-.283 1.586-.85 2.182-.568.582-1.302.873-2.204.873-.99 0-1.862-.415-2.618-1.244C.37 12.327 0 11.076 0 9.404z" fill="#6FB587"/></svg><svg fill="none" viewBox="0 0 16 16" id="search-icon" xmlns="http://www.w3.org/2000/svg"><circle cx="7.844" cy="7.844" r="5.992" stroke="#fff" stroke-width="1.5" stroke-linecap="round" stroke-linejoin="round"/><path d="M12.012 12.323l2.35 2.344" stroke="#fff" stroke-width="1.5" stroke-linecap="round" stroke-linejoin="round"/></svg><svg fill="none" viewBox="0 0 16 16" id="small-arrow-icon" xmlns="http://www.w3.org/2000/svg"><path d="M5.667 3.333L10.333 8l-4.666 4.667" stroke="#6FB587" stroke-width="1.5" stroke-linecap="round" stroke-linejoin="round"/></svg><svg fill="none" viewBox="0 0 14 13" id="twitter-icon" xmlns="http://www.w3.org/2000/svg"><g clip-path="url(#jclip0_34_564)"><path d="M13.419 2.438c-.478.21-.987.348-1.517.416a2.616 2.616 0 001.158-1.455 5.259 5.259 0 01-1.669.637 2.63 2.63 0 00-4.552 1.8c0 .209.017.41.06.6a7.45 7.45 0 01-5.424-2.753A2.636 2.636 0 002.284 5.2a2.599 2.599 0 01-1.19-.323v.028c0 1.28.913 2.342 2.11 2.586a2.627 2.627 0 01-.69.087c-.17 0-.34-.01-.499-.045a2.657 2.657 0 002.46 1.833A5.288 5.288 0 011.21 10.49c-.216 0-.423-.01-.63-.036a7.409 7.409 0 004.038 1.18c4.843 0 7.49-4.01 7.49-7.488 0-.117-.004-.229-.01-.34.523-.371.962-.834 1.32-1.367z" fill="#402F2C"/></g><defs><clipPath id="jclip0_34_564"><path fill="#fff" transform="translate(.581)" d="M0 0h12.837v12.837H0z"/></clipPath></defs></svg><svg fill="none" viewBox="0 0 24 24" id="user-icon" xmlns="http://www.w3.org/2000/svg"><circle cx="11.579" cy="7.278" r="4.778" stroke="#222" stroke-width="1.5" stroke-linecap="round" stroke-linejoin="round"/><path clip-rule="evenodd" d="M4 18.701a2.214 2.214 0 01.22-.97c.457-.915 1.748-1.4 2.819-1.62a16.793 16.793 0 012.343-.33 25.059 25.059 0 014.385 0c.787.056 1.57.166 2.343.33 1.07.22 2.361.659 2.82 1.62a2.27 2.27 0 010 1.95c-.459.96-1.75 1.4-2.82 1.61-.772.172-1.555.286-2.343.34-1.188.1-2.38.118-3.57.054-.275 0-.54 0-.815-.055a15.43 15.43 0 01-2.334-.338c-1.08-.21-2.361-.65-2.828-1.611A2.28 2.28 0 014 18.7z" stroke="#222" stroke-width="1.5" stroke-linecap="round" stroke-linejoin="round"/></svg></svg>